<svg width="273" height="178" viewBox="0 0 273 178" fill="none" xmlns="http://www.w3.org/2000/svg">
<path d="M13.4123 48.6549C13.7697 48.652 14.1331 48.6165 14.4905 48.6195C16.3225 48.6313 18.0442 49.6352 19.8702 49.7858C21.9822 49.96 24.1001 48.9856 26.1912 49.3517C27.6359 49.6027 28.9346 50.4737 30.3376 50.952C35.0232 52.5494 39.9233 49.5998 44.8115 49.3458C46.7894 49.2425 48.7554 49.5939 50.7333 49.5584C51.4988 49.5466 55.4338 49.1421 53.2206 47.5831C51.4691 46.349 49.3303 46.0508 47.263 45.9563C45.2494 45.8647 43.2298 45.8145 41.237 45.5311C39.5778 45.2978 38.5025 44.0755 37.0637 43.1779C34.8296 41.7843 31.9462 41.6927 29.6406 42.9387C27.5823 44.0519 26.2805 44.8136 23.9571 45.1148C21.4311 45.4425 18.8872 45.6108 16.3433 45.6197C15.1786 45.6226 13.5582 45.1443 12.462 45.5724C11.7858 45.8352 11.2139 46.6265 11.3837 47.4119C11.5237 48.0644 12.1194 48.4778 12.7063 48.5988C12.9416 48.6431 13.1769 48.6549 13.4123 48.6549Z" fill="white"/>
<path d="M242.701 30.4286C240.41 30.4965 237.878 30.2012 235.674 30.9571C233.106 31.837 231.894 35.1527 235.71 35.0258C236.892 34.9874 238.063 34.5888 239.237 34.7305C241.223 34.9697 243.035 36.505 245.102 36.2275C246.127 36.0887 246.815 35.7078 247.908 35.7728C251.092 35.9588 253.946 37.0867 257.038 35.5425C257.863 35.1321 258.625 34.5888 259.495 34.2788C261.807 33.455 264.383 34.4146 266.814 34.0662C269.501 33.6823 270.204 31.2258 267.169 30.6205C264.077 30.0034 260.866 31.0427 257.803 30.1658C256.791 29.8765 255.849 29.3834 254.848 29.0468C253.21 28.4917 251.426 28.3677 249.728 28.6866C247.935 29.0232 246.267 29.8351 244.491 30.2544C244.021 30.3636 243.404 30.4079 242.701 30.4286Z" fill="white"/>
<path d="M271.872 116.473C270.082 125.614 266.123 134.386 260.508 141.871C256.257 147.534 251.008 152.586 244.673 155.81C235.578 160.437 224.926 160.998 214.733 160.245C200.351 159.182 186.009 155.701 171.666 157.207C164.624 157.945 157.633 159.885 150.579 159.291C141.673 158.541 136.96 151.877 129.29 149.837C122.385 148.001 115.358 144.599 108.42 146.315C103.449 147.543 99.5318 151.198 95.3138 154.086C79.1003 165.187 56.5897 164.966 39.0596 156.04C33.4268 153.173 29.325 149.117 24.3921 145.5C19.4801 141.895 14.6128 139.553 10.6063 134.72C3.05515 125.614 -0.63252 113.163 1.79518 101.518C5.7361 82.6274 17.9937 63.9317 38.9137 62.2575C51.0849 61.2832 63.3962 66.0752 72.4189 74.2332C74.6202 76.2262 76.6726 78.4318 79.2314 79.9494C86.4549 84.2395 95.9244 82.031 103.193 77.8117C110.461 73.5925 116.57 67.5692 124.023 63.6777C139.188 55.7619 158.211 57.8818 173.42 65.7091C177.769 67.9472 181.993 70.6576 186.795 71.6349C195.987 73.5098 199.461 66.5978 205.913 61.9534C215.022 55.3957 229.228 53.5061 239.805 57.2529C256.775 63.2673 269.521 79.8254 272.292 97.1984C273.313 103.597 273.114 110.125 271.872 116.473Z" fill="white"/>
<path d="M149.632 34.1811L147.645 35.1348L149.593 34.122C149.599 34.1309 149.602 34.1398 149.611 34.1486C149.617 34.1604 149.623 34.1693 149.632 34.1811Z" fill="#F9C358"/>
<path d="M150.841 34.441C150.823 34.4499 143.534 37.8719 143.534 37.8719C143.338 37.9664 143.111 37.993 142.897 37.9458C142.766 37.9192 142.62 37.8749 142.522 37.7804C142.498 37.7597 142.483 37.7391 142.468 37.7184C142.417 37.6328 142.444 37.5442 142.462 37.435C142.513 37.1515 142.685 36.9005 142.933 36.7529L149.787 32.6725C149.861 32.9057 149.968 33.1596 150.123 33.4372L150.126 33.4401L150.103 33.4519C150.195 33.5317 150.251 33.6557 150.311 33.7679L148.363 34.7806L150.347 33.8269C150.356 33.8476 150.371 33.8682 150.383 33.886C150.424 33.9391 150.785 34.4676 150.841 34.441Z" fill="#F9C358"/>
<path d="M158.473 33.1065C158.488 33.0947 158.5 33.0888 158.514 33.077C158.622 33.0061 158.72 32.9205 158.806 32.826C159.188 32.4067 159.325 31.8015 159.161 31.2287C159.161 31.2257 159.161 31.2198 159.155 31.2168C159.125 31.1342 159.086 31.0545 159.042 30.9718L157.296 27.7417C157.257 27.6619 157.21 27.5911 157.159 27.5232C157.159 27.5202 157.159 27.5202 157.153 27.5202C156.766 27.0567 156.17 26.8264 155.595 26.9061C155.479 26.9238 155.366 26.9533 155.253 26.9946C155.241 26.9976 155.232 27.0035 155.22 27.0065C155.086 27.0567 154.955 27.1128 154.83 27.1689C154.466 27.095 154.073 27.1246 153.704 27.2722C153.209 27.4641 152.748 27.6796 152.319 27.9159L152.295 27.9277C150.371 29.0024 149.197 30.4698 149.17 31.9373C149.167 32.2 149.197 32.516 149.307 32.8821C149.382 33.1213 149.492 33.3811 149.653 33.6616C149.715 33.7797 149.778 33.8919 149.843 33.9952C150.016 34.2728 150.204 34.5001 150.382 34.6802C150.558 34.8544 150.728 34.9873 150.886 35.0906C152.298 36.0237 154.454 35.8494 156.659 34.7068C156.662 34.7068 156.665 34.7038 156.668 34.7009C156.912 34.5769 157.156 34.4381 157.394 34.2905C157.806 34.0366 158.092 33.6645 158.237 33.2453C158.315 33.201 158.392 33.1537 158.473 33.1065ZM155.831 28.6422C156.203 28.4444 156.671 28.5831 156.867 28.9522L157.761 30.6086C157.862 30.7917 157.874 31.0013 157.817 31.1844C157.761 31.3733 157.633 31.5357 157.448 31.6332C157.076 31.831 156.608 31.6922 156.411 31.3231L155.518 29.6667C155.417 29.4837 155.405 29.274 155.461 29.091C155.518 28.902 155.646 28.7396 155.831 28.6422Z" fill="#003156"/>
<path d="M156.93 28.0016C156.972 28.0606 157.01 28.1226 157.049 28.1876L158.55 30.963C158.589 31.0339 158.622 31.1018 158.646 31.1756C158.616 31.0693 158.574 30.966 158.521 30.8656L157.115 28.2643C157.058 28.1698 156.998 28.0813 156.93 28.0016Z" fill="#003156"/>
<path d="M69.1843 133.665L39.2893 163.3" stroke="#688D9E" stroke-width="0.893633" stroke-miterlimit="10"/>
<path d="M69.1843 163.3L39.2893 133.665" stroke="#688D9E" stroke-width="0.893633" stroke-miterlimit="10"/>
<path d="M75.3769 148.481H33.0962" stroke="#688D9E" stroke-width="0.893633" stroke-miterlimit="10"/>
<path d="M54.2366 127.53V169.436" stroke="#688D9E" stroke-width="0.893633" stroke-miterlimit="10"/>
<path d="M192.678 133.665L162.783 163.3" stroke="#688D9E" stroke-width="0.893633" stroke-miterlimit="10"/>
<path d="M192.678 163.3L162.783 133.665" stroke="#688D9E" stroke-width="0.893633" stroke-miterlimit="10"/>
<path d="M198.871 148.481H156.593" stroke="#688D9E" stroke-width="0.893633" stroke-miterlimit="10"/>
<path d="M177.731 127.53V169.436" stroke="#688D9E" stroke-width="0.893633" stroke-miterlimit="10"/>
<path d="M268.381 176.555H1.20532" stroke="#BED5E6" stroke-width="0.595755" stroke-miterlimit="10" stroke-linecap="round"/>
<path d="M177.731 120.591C162.19 120.591 149.593 133.078 149.593 148.484C149.593 163.888 162.19 176.375 177.731 176.375C193.271 176.375 205.871 163.888 205.871 148.484C205.874 133.078 193.274 120.591 177.731 120.591ZM177.731 169.436C166.057 169.436 156.593 160.056 156.593 148.484C156.593 136.91 166.057 127.53 177.731 127.53C189.408 127.53 198.871 136.91 198.871 148.484C198.874 160.056 189.411 169.436 177.731 169.436Z" fill="#0D314F"/>
<path d="M140.008 115.404L135.096 134.15L101.489 135.903L103.512 114.713L140.008 115.404Z" fill="#254A69"/>
<path d="M82.3115 146.583C81.254 131.215 67.8287 119.605 52.3212 120.653C36.8137 121.701 25.1041 135.009 26.1616 150.38C27.222 165.748 40.6444 177.358 56.1519 176.309C71.6564 175.264 83.366 161.954 82.3115 146.583ZM54.2365 169.436C42.5597 169.436 33.0962 160.055 33.0962 148.484C33.0962 136.91 42.5597 127.53 54.2365 127.53C65.9103 127.53 75.3769 136.91 75.3769 148.484C75.3769 160.055 65.9133 169.436 54.2365 169.436Z" fill="#0D314F"/>
<path d="M177.734 176.374C193.275 176.374 205.874 163.886 205.874 148.481C205.874 133.076 193.275 120.588 177.734 120.588C162.192 120.588 149.593 133.076 149.593 148.481C149.593 163.886 162.192 176.374 177.734 176.374Z" stroke="#71B5BC" stroke-width="0.297877" stroke-miterlimit="10"/>
<path d="M54.2365 160.245C60.7907 160.245 66.104 154.978 66.104 148.481C66.104 141.985 60.7907 136.718 54.2365 136.718C47.6823 136.718 42.3691 141.985 42.3691 148.481C42.3691 154.978 47.6823 160.245 54.2365 160.245Z" fill="#688D9E"/>
<path d="M54.2367 154.177C57.4102 154.177 59.9828 151.627 59.9828 148.481C59.9828 145.336 57.4102 142.786 54.2367 142.786C51.0633 142.786 48.4907 145.336 48.4907 148.481C48.4907 151.627 51.0633 154.177 54.2367 154.177Z" fill="#0A3451"/>
<path d="M163.426 103.592C163.421 103.554 163.415 103.519 163.412 103.481" stroke="black" stroke-width="0.297877" stroke-miterlimit="10"/>
<path d="M24.9314 112.451V118.167C23.6118 117.795 23.1382 116.269 23.0995 115.436C23.0518 114.435 23.5642 112.829 24.9314 112.451Z" fill="#F25F24"/>
<path d="M29.6143 115.309C29.6143 116.883 26.9632 118.418 25.2921 118.238C25.164 118.223 25.0449 118.2 24.9287 118.167V112.451C25.0449 112.419 25.164 112.395 25.2921 112.38C26.9721 112.2 29.6143 113.735 29.6143 115.309Z" fill="#0D314F"/>
<path d="M177.734 119.511C174.502 119.511 171.273 120.039 168.217 121.082C162.557 123.013 157.567 126.694 154.055 131.495C152.295 133.905 150.91 136.583 149.969 139.408C149.489 140.852 149.126 142.334 148.881 143.837C148.625 145.42 148.729 147.209 148.226 148.727C148.059 149.231 147.72 149.84 147.219 150.094C146.582 150.418 146.2 149.928 145.888 149.344C145.164 147.988 145.06 146.057 144.997 144.537C144.815 140.226 146.189 136.181 148.265 132.443C151.118 127.3 155.348 122.942 160.421 119.915C166.873 116.065 174.615 114.332 182.041 116.086C183.256 116.372 188.165 117.716 186.512 119.593C185.514 120.727 183.968 120.14 182.714 119.927C181.067 119.65 179.399 119.511 177.734 119.511Z" fill="#7CA7E5"/>
<path d="M53.1345 107.115C54.4719 107.213 55.8064 107.417 57.132 107.73C59.1754 108.214 60.8406 109.268 62.6964 110.168C63.9623 110.783 69.8901 116.003 66.4824 116.782C65.8419 116.93 65.1747 116.756 64.5372 116.602C57.3554 114.857 49.6404 115.333 42.7326 117.946C34.7584 120.96 25.8102 127.447 23.9008 136.148C23.6416 137.329 23.3139 139.269 21.9348 139.682C19.513 140.409 19.9688 136.122 20.079 134.817C20.9101 125.07 27.1387 116.558 35.5121 111.559C40.8113 108.397 46.9833 106.661 53.1345 107.115Z" fill="#7CA7E5"/>
<path d="M36.656 98.5118L39.2118 109.808C39.2625 110.03 39.4352 110.201 39.6557 110.254L62.7382 115.657C66.2144 116.469 69.2677 118.519 71.3201 121.412L84.6888 140.247C85.6509 141.602 86.3092 143.143 86.622 144.77L87.3489 148.558C87.8433 151.136 90.1161 152.999 92.7613 152.999H124.643C128.182 152.999 131.295 150.684 132.284 147.315L135.489 136.408C136.001 134.663 134.598 132.951 132.772 133.087L105.367 135.13C103.827 135.245 102.55 133.963 102.684 132.44L103.973 117.677C104.087 116.393 105.168 115.409 106.47 115.409H140.008C141.318 115.409 142.575 114.896 143.505 113.98L148.902 108.663C149.009 108.557 149.152 108.497 149.304 108.492L154.77 108.314C155.193 108.3 155.467 107.869 155.298 107.485L149.352 94.1273C149.108 93.5781 148.026 93.7641 147.574 93.8999C146.653 94.1745 146.585 94.9303 146.04 95.574C145.551 96.1498 144.687 96.2206 143.931 96.1557C142.602 96.0405 141.283 95.6449 140.124 94.9894C139.328 94.5406 138.634 94.7148 137.735 94.7975C137.666 94.8034 137.601 94.8211 137.541 94.8506L107.971 108.444C107.89 108.483 107.801 108.5 107.712 108.5L61.3322 107.966L40.7191 107.071C40.46 107.06 40.2395 106.885 40.171 106.64L37.8148 98.2313C37.7433 97.9774 37.5139 97.8032 37.2488 97.7973C36.8616 97.7855 36.5726 98.1369 36.656 98.5118Z" fill="#063146"/>
<path d="M56.0028 141.387L57.1049 141.723C57.5517 141.859 58.0224 141.611 58.1594 141.171L59.7203 136.152C59.8573 135.709 59.6071 135.242 59.1632 135.106L58.0611 134.77C57.6143 134.634 57.1436 134.882 57.0066 135.322L55.4457 140.341C55.3087 140.781 55.5589 141.251 56.0028 141.387Z" fill="#2A6893"/>
<path d="M131.327 142.744L130.862 146.264C130.416 149.659 127.496 152.151 124.121 152.019L106.568 151.325C103.056 151.186 100.279 148.257 100.279 144.693V143.409C100.279 139.96 102.883 137.084 106.273 136.795L124.291 135.254C128.459 134.894 131.881 138.54 131.327 142.744Z" fill="#FCFAFC"/>
<path d="M73.8103 118.604L84.5666 134.02C84.8287 134.398 85.2636 134.622 85.7254 134.622H93.5059C94.1225 134.622 94.6676 134.223 94.8523 133.642L99.7107 118.226C99.9937 117.326 99.3145 116.411 98.3643 116.411H74.969C73.8311 116.411 73.1639 117.677 73.8103 118.604Z" stroke="black" stroke-width="0.297877" stroke-miterlimit="10"/>
<path d="M72.5829 118.743L83.8636 134.908C84.2985 135.531 85.0104 135.9 85.7759 135.9H93.7531C94.7689 135.9 95.6684 135.245 95.9723 134.285L101.066 118.12C101.534 116.638 100.417 115.129 98.8468 115.129H74.4983C72.6187 115.132 71.5165 117.217 72.5829 118.743Z" fill="#7CA7E5"/>
<path d="M79.6991 123.724L84.5724 130.707C85.1354 131.513 86.0618 131.994 87.0508 131.994H90.0563C91.3759 131.994 92.5406 131.144 92.9338 129.898L95.1351 122.915C95.7398 120.99 94.2922 119.038 92.2577 119.038H82.1804C79.7468 119.038 78.3169 121.743 79.6991 123.724Z" fill="#6572AA"/>
<path d="M129.596 118.941H111.289C110.336 118.941 109.534 119.644 109.418 120.58L109.022 123.754C108.98 124.096 109.034 124.445 109.177 124.757L112.713 132.455C113.037 133.163 113.77 133.598 114.554 133.544C118.283 133.293 129.796 132.659 129.847 132.461C129.897 132.254 131.467 125.761 131.836 123.857C131.899 123.532 131.973 123.21 131.911 122.886L131.449 120.461C131.279 119.579 130.502 118.941 129.596 118.941Z" fill="#0A3150"/>
<path d="M51.1237 144.221L26.7484 130.27C26.2479 129.984 26.0752 129.349 26.3642 128.853C26.6531 128.357 27.2935 128.185 27.7939 128.472L52.1693 142.423C52.6697 142.709 52.8425 143.344 52.5535 143.84C52.2646 144.336 51.6241 144.507 51.1237 144.221Z" fill="#063146"/>
<path d="M135.048 84.1741L142.444 83.1466C142.674 83.1142 142.906 83.1909 143.07 83.3533L144.407 84.679C144.58 84.8503 144.824 84.9271 145.066 84.8828L146.326 84.6525C146.611 84.5993 146.841 84.3867 146.912 84.1062L147.136 83.1998C147.261 82.6919 147.868 82.4734 148.294 82.7835L150.91 84.6849C151.136 84.8503 151.249 85.1278 151.202 85.3995L150.257 90.8883C150.222 91.0891 150.106 91.2692 149.93 91.3814L148.628 92.2199C148.461 92.3262 148.262 92.3646 148.068 92.3233L144.571 91.5733C144.517 91.5615 144.467 91.5438 144.416 91.5202L135.617 87.4663C135.134 87.2448 135.039 86.6041 135.435 86.2528L136.168 85.6002C136.391 85.4024 136.713 85.3581 136.981 85.4851L142.998 88.3402C143.499 88.5794 144.077 88.2044 144.059 87.6523C144.047 87.2773 143.752 86.9732 143.376 86.9466L136.743 86.4388C136.647 86.4329 136.558 86.4063 136.472 86.365L134.818 85.5589C134.169 85.24 134.324 84.2745 135.048 84.1741Z" fill="#063146"/>
<path d="M129.647 76.8518C130.596 76.8518 131.366 75.0156 131.366 72.7506C131.366 70.4857 130.596 68.6495 129.647 68.6495C128.698 68.6495 127.928 70.4857 127.928 72.7506C127.928 75.0156 128.698 76.8518 129.647 76.8518Z" fill="#063146"/>
<path d="M147.061 76.8547C147.864 76.8547 148.515 75.2737 148.515 73.3234C148.515 71.3731 147.864 69.7921 147.061 69.7921C146.259 69.7921 145.608 71.3731 145.608 73.3234C145.608 75.2737 146.259 76.8547 147.061 76.8547Z" fill="#063146"/>
<path d="M141.988 84.13L134.753 73.2941H131.101V72.2104H135.34L142.9 83.5336L141.988 84.13Z" fill="#063146"/>
<path d="M147.949 72.5381L146.567 84.9655L145.649 85.0511L146.972 73.1581" fill="#063146"/>
<path d="M131.533 93.5282H127.014C126.674 93.5282 126.4 93.2566 126.4 92.92V92.5096C126.4 92.173 126.674 91.9013 127.014 91.9013H131.533C131.872 91.9013 132.146 92.173 132.146 92.5096V92.92C132.146 93.2566 131.872 93.5282 131.533 93.5282Z" fill="#899BAB"/>
<path d="M127.276 128.758L115.18 129.464C114.509 129.502 113.943 128.974 113.943 128.31V123.453C113.943 122.812 114.468 122.295 115.111 122.295H127.208C127.854 122.295 128.376 122.815 128.376 123.453V127.604C128.376 128.215 127.896 128.72 127.276 128.758Z" fill="#7CA7E5"/>
<path d="M148.431 107.488L139.695 134.622L137.452 130.447L143.945 111.382L148.431 107.488Z" fill="#023159"/>
<path d="M177.734 160.245C184.288 160.245 189.601 154.978 189.601 148.481C189.601 141.985 184.288 136.718 177.734 136.718C171.179 136.718 165.866 141.985 165.866 148.481C165.866 154.978 171.179 160.245 177.734 160.245Z" fill="#688D9E"/>
<path d="M149.906 107.488C149.396 110.883 149.176 115.917 150.966 121.625C151.675 123.889 152.578 125.862 153.498 127.53" stroke="#063146" stroke-width="0.893633" stroke-miterlimit="10"/>
<path d="M177.734 154.177C180.907 154.177 183.48 151.627 183.48 148.481C183.48 145.336 180.907 142.786 177.734 142.786C174.56 142.786 171.988 145.336 171.988 148.481C171.988 151.627 174.56 154.177 177.734 154.177Z" fill="#0A3451"/>
<path d="M107.444 158.228L116.654 175.811C116.836 176.156 117.196 176.372 117.586 176.372C118.364 176.372 118.873 175.563 118.531 174.869L110.279 158.225H107.444V158.228Z" fill="#063146"/>
<path d="M101.778 108.911C101.027 108.051 100.074 107.851 98.9659 107.517C97.6969 107.133 96.4101 106.808 95.1173 106.519C92.5377 105.94 89.9283 105.503 87.3338 105.004C80.846 103.755 74.3523 102.554 67.7662 102.318C64.3228 102.194 60.8763 102.07 57.4328 101.946C55.583 101.881 53.7332 101.813 51.8834 101.748C49.5897 101.665 47.1978 101.816 44.9607 102.253C43.242 102.589 41.8091 103.469 41.1449 105.12C40.573 106.537 41.4815 108.601 42.9024 109.3C44.6777 110.174 46.6914 110.496 48.6306 110.567L98.3969 112.353C99.7076 112.401 101.992 112.442 102.389 110.824C102.529 110.251 102.323 109.64 101.974 109.162C101.909 109.07 101.843 108.987 101.778 108.911Z" fill="#4A4C5D"/>
<path d="M140.061 94.5675C143.311 95.5773 145.858 98.1844 146.582 101.485C146.611 101.615 146.635 101.748 146.659 101.884C147.153 104.718 146.334 107.639 144.511 109.968C143.546 111.199 142.057 111.917 140.484 111.917H106.085C105.457 111.917 104.861 111.645 104.45 111.173L102.767 109.227C102.04 108.386 102.079 107.131 102.865 106.342C104.325 104.875 106.204 103.157 108.516 101.403C111.247 99.333 115.853 95.843 121.691 94.1099C128.9 91.9663 135.647 93.1975 140.061 94.5675Z" fill="#7CA7E5"/>
<path d="M56.6404 137.905L58.5557 138.49C59.1723 138.679 59.8247 138.336 60.0153 137.725L67.0392 115.12C67.3907 113.986 66.7504 112.782 65.6035 112.433C64.4597 112.085 63.2443 112.72 62.8928 113.856L55.8688 136.461C55.6782 137.07 56.0238 137.716 56.6404 137.905Z" fill="#F4FDFA" stroke="#2A6893" stroke-width="0.297877" stroke-miterlimit="10"/>
<path d="M56.9473 133.559L60.7661 134.725C61.3499 134.903 61.9665 134.578 62.1482 134.002L65.7883 122.289C65.967 121.71 65.6394 121.099 65.0585 120.919L61.2397 119.753C60.6558 119.576 60.0393 119.901 59.8576 120.476L56.2175 132.189C56.0388 132.768 56.3635 133.382 56.9473 133.559Z" fill="#254A69"/>
<path d="M135.766 87.5842L128.515 88.3549C127.514 88.4612 126.615 87.7437 126.508 86.7516L126.484 86.5213C126.376 85.5293 127.1 84.6376 128.101 84.5313L135.351 83.7607C136.352 83.6544 137.252 84.3718 137.359 85.3639L137.383 85.5942C137.49 86.5863 136.766 87.478 135.766 87.5842Z" fill="#254A69"/>
<path d="M164.666 119.266L177.704 146.512C178.216 147.584 177.754 148.868 176.673 149.376C175.592 149.884 174.296 149.427 173.784 148.355L160.746 121.108" fill="#F4FDFA"/>
<path d="M164.666 119.266L177.704 146.512C178.216 147.584 177.754 148.868 176.673 149.376C175.592 149.884 174.296 149.427 173.784 148.355L160.746 121.108" stroke="#2A6893" stroke-width="0.297877" stroke-miterlimit="10"/>
<path d="M160.745 121.108L147.812 94.0802C147.38 93.1797 147.767 92.102 148.678 91.6739L149.304 91.3786C150.213 90.9505 151.3 91.3343 151.732 92.2378L164.666 119.266" fill="#7CA7E5"/>
<path d="M164.252 121.554L162.792 122.239C161.839 122.688 160.701 122.283 160.248 121.338L154.315 108.935C153.862 107.99 154.27 106.862 155.22 106.413L156.68 105.728C157.633 105.279 158.771 105.684 159.224 106.629L165.157 119.032C165.61 119.977 165.205 121.105 164.252 121.554Z" fill="#0D314F"/>
<path d="M127.532 143.06L127.181 145.316C126.844 147.489 124.64 149.087 122.093 149.001L108.84 148.558C106.189 148.469 104.092 146.595 104.092 144.309V143.485C104.092 141.277 106.058 139.435 108.617 139.249L122.221 138.259C125.367 138.032 127.952 140.368 127.532 143.06Z" fill="#0A3150"/>
<path d="M83.2764 155.505L89.5467 157.348C91.5335 157.932 93.5979 158.228 95.6711 158.228H127.985C131.035 158.228 133.725 156.241 134.598 153.344L139.882 135.773C140.719 132.995 140.129 129.948 138.199 127.772C138.119 127.68 138.035 127.592 137.949 127.503C135.503 124.952 132.45 124.686 131.771 124.645L130.889 127.855C131.399 127.884 133.326 128.049 134.949 129.605C135.339 129.98 135.652 130.376 135.899 130.772C136.754 132.133 136.942 133.804 136.474 135.339C134.779 140.902 133.081 146.468 131.387 152.03C130.937 153.507 129.564 154.519 128.006 154.519H96.0106C94.1638 154.519 92.3259 154.268 90.5446 153.778C88.3076 153.158 86.0705 152.541 83.8305 151.921" fill="#E1B77D"/>
<path d="M79.3179 157.502L53.2357 149.539C52.5089 149.317 51.9459 148.735 51.7225 147.983L51.0492 145.715C50.7573 144.732 51.0969 143.642 51.8952 142.993L53.7361 141.496C54.3497 140.997 55.145 140.831 55.8719 141.053L81.954 149.016C82.6987 149.243 83.2707 149.846 83.4822 150.625L84.0958 152.872C84.3549 153.823 84.0302 154.862 83.2766 155.503L81.4953 157.02C80.8787 157.549 80.0626 157.729 79.3179 157.502Z" fill="#899BAB"/>
<path d="M133.773 103.342C134.671 103.342 135.399 102.62 135.399 101.73C135.399 100.84 134.671 100.118 133.773 100.118C132.875 100.118 132.146 100.84 132.146 101.73C132.146 102.62 132.875 103.342 133.773 103.342Z" fill="#FFFDF7"/>
<path d="M88.838 72.0974C88.9452 72.0974 88.9452 71.9329 88.838 71.9329C88.7308 71.9329 88.7308 72.0974 88.838 72.0974Z" fill="#E98B50"/>
<path d="M110.256 108.902C111.343 108.914 112.427 108.696 113.535 108.69C114.888 108.681 116.04 109.121 117.461 108.905C118.143 108.802 118.826 108.651 119.442 108.353C120.69 107.748 121.608 106.511 121.816 105.149C122.025 103.788 121.521 102.339 120.511 101.391C120.163 101.066 119.752 100.794 119.293 100.662C118.769 100.511 118.209 100.552 117.667 100.629C114.125 101.143 110.723 103.13 108.34 105.705C107.849 106.236 107.363 106.921 107.539 107.621C107.67 108.137 108.147 108.512 108.659 108.672C109.192 108.837 109.725 108.896 110.256 108.902Z" fill="#254A69"/>
<path d="M163.79 104.467C166.411 103.298 167.356 98.937 167.433 96.5484C167.528 93.6726 166.51 89.0902 163.805 87.8826C163.456 90.2564 163.2 93.023 163.191 96.1114C163.188 99.25 163.438 102.061 163.79 104.467Z" fill="#FFFDF7" stroke="#E1B77D" stroke-width="0.297877" stroke-miterlimit="10"/>
<path d="M162.929 104.722C163.233 104.674 163.522 104.589 163.79 104.468C163.441 102.061 163.188 99.2504 163.194 96.1148C163.203 93.0264 163.456 90.2568 163.808 87.8859C163.534 87.7649 163.239 87.6763 162.929 87.6291C159.48 87.1035 154.052 91.5855 154.049 96.1768C154.049 97.0005 154.225 97.8184 154.532 98.6038L155.08 99.7523C156.826 102.811 160.415 105.108 162.929 104.722Z" fill="#063146"/>
<path d="M102.529 162.881H95.8054V171.432H102.529V162.881Z" fill="#E29B7F"/>
<path d="M105.045 92.6691L104.369 167.505L93.5057 168.739L92.3857 130.232L88.3345 103.29C87.8222 99.8734 87.8341 96.3569 88.3763 92.8581L88.8707 89.6723L105.045 92.6691Z" fill="#254A69" stroke="#3B8486" stroke-width="0.297877" stroke-miterlimit="10"/>
<path d="M82.779 162.881H76.0559V171.432H82.779V162.881Z" fill="#E29B7F"/>
<path d="M93.5326 93.5843L84.2537 167.856H73.3186L76.634 129.473L75.7076 102.247C75.5914 98.7956 76.0084 95.3027 76.9497 91.8866L77.8047 88.7775L93.5326 93.5843Z" fill="#063146" stroke="#3B8486" stroke-width="0.297877" stroke-miterlimit="10"/>
<path d="M91.0365 177.145C91.3106 177.098 91.6055 177.03 91.7872 176.818C92.0285 176.537 91.9808 176.115 91.8766 175.758C91.8468 175.657 91.814 175.557 91.7485 175.474C91.4983 175.158 90.7387 174.872 90.3603 174.724C89.7437 174.482 89.1391 174.21 88.5523 173.9C85.8088 172.439 83.9709 170.446 82.8598 168.981C82.6781 168.739 82.3623 168.671 82.1092 168.825C81.6296 169.117 81.2483 169.507 80.7657 169.79C79.5057 170.534 78.201 171.178 76.8159 170.375C76.3363 170.097 75.4993 169.734 75.4248 170.653C75.3563 171.476 75.2848 172.3 75.2163 173.121C75.1627 173.768 75.112 174.414 75.0525 175.058C74.9959 175.69 74.6086 176.28 75.2669 176.756C75.5767 176.98 75.9669 177.054 76.3482 177.101C77.6112 177.252 78.8921 177.128 80.164 177.113C83.7683 177.069 87.4292 177.762 91.0365 177.145Z" fill="#063146"/>
<path d="M111.304 177.145C111.578 177.098 111.873 177.03 112.055 176.818C112.296 176.537 112.248 176.115 112.144 175.758C112.114 175.657 112.081 175.557 112.016 175.474C111.766 175.158 111.006 174.872 110.628 174.724C110.011 174.482 109.406 174.21 108.82 173.9C106.076 172.439 104.238 170.446 103.127 168.981C102.945 168.739 102.63 168.671 102.376 168.825C101.897 169.117 101.516 169.507 101.033 169.79C99.773 170.534 98.4683 171.178 97.0832 170.375C96.6036 170.097 95.7666 169.734 95.6921 170.653C95.6236 171.476 95.5521 172.3 95.4836 173.121C95.4299 173.768 95.3794 174.414 95.3198 175.058C95.2632 175.69 94.8759 176.28 95.5342 176.756C95.844 176.98 96.2342 177.054 96.6155 177.101C97.8785 177.252 99.1594 177.128 100.431 177.113C104.036 177.069 107.697 177.762 111.304 177.145Z" fill="#063146"/>
<path d="M107.92 58.6137C109.463 60.1402 111.149 61.5191 112.954 62.7296C114 63.4323 114.992 64.1882 116.263 64.3152C117.267 64.4155 118.623 64.5041 119.51 63.9166C120.222 63.4441 120.452 62.2425 120.705 61.4659C120.809 61.15 120.913 60.8134 120.836 60.4886C120.657 59.7446 120.321 58.9562 119.761 58.407C119.278 57.9346 118.691 57.5833 118.119 57.226C116.004 55.9062 114.003 54.4092 112.141 52.7558" fill="#E29B7F"/>
<path d="M142.932 47.7486C142.477 47.6542 142.009 47.5921 141.547 47.536C140.076 47.35 138.604 47.167 137.133 46.981C136.981 46.9632 136.805 46.9249 136.743 46.7861C136.692 46.6709 136.746 46.5381 136.799 46.4259C137.136 45.7379 137.562 45.0884 138.059 44.5037C138.205 44.3325 138.369 44.1288 138.318 43.9073C138.25 43.6091 137.854 43.5353 137.547 43.5737C136.37 43.7125 135.396 44.5185 134.538 45.3275C132.843 46.919 131.422 48.8145 129.546 50.2052C127.768 51.525 125.757 52.4964 123.794 53.5121C121.167 54.8732 118.474 56.3052 116.415 58.4665C115.832 59.0777 115.227 59.8513 114.831 60.6662C114.158 62.048 114.095 63.5479 115.79 64.5665C117.69 65.7092 120.94 64.7939 122.617 63.5007C124.571 61.9948 126.299 60.2292 128.015 58.4695C129.501 56.943 130.836 55.1832 132.504 53.8398C133.695 52.7326 135.503 52.6204 137.04 52.6381C138.78 52.6588 140.511 52.6381 142.25 52.6913C142.915 52.7119 143.591 52.7326 144.237 52.5702C144.884 52.4078 145.506 52.0387 145.816 51.4571C146.352 50.4502 145.762 49.1422 144.818 48.4897C144.261 48.1029 143.609 47.8904 142.932 47.7486Z" fill="#E29B7F"/>
<path d="M108.45 67.6401C105.873 65.3813 104.065 61.5164 102.558 58.4428C101.939 57.1791 101.48 55.3662 100.565 54.3032C99.2845 52.8151 97.67 51.2621 96.8657 49.4374C96.0793 47.657 95.6146 45.3451 95.3912 43.4082C95.3674 43.1986 95.3465 42.9772 95.4329 42.7852C95.6355 42.3364 96.2551 42.3364 96.7406 42.425C96.7883 42.4339 96.8359 42.4427 96.8836 42.4516C100.327 43.0923 102.892 44.917 105.614 47.1314C106.428 47.7928 107.238 48.4512 108.051 49.1126C111.045 51.5455 113.985 54.0375 116.966 56.4882C116.749 56.314 109.147 66.707 108.45 67.6401Z" fill="#D84545"/>
<path d="M103.386 44.3352C103.803 44.6954 104.208 45.0675 104.581 45.4779C106.958 48.0909 107.303 51.8997 107.417 55.2981C107.548 59.2487 106.875 63.1579 106.496 67.073C106.285 69.2609 105.418 93.6551 105.436 93.6551C95.019 93.8057 84.5009 92.3796 74.4595 89.4536C74.5637 87.8681 74.6799 86.2825 74.805 84.697C75.371 77.4484 76.2855 70.2352 77.2804 63.0369C77.7599 59.5646 77.8999 55.744 78.8323 52.3721C79.6395 49.4579 81.5758 46.7977 83.7652 44.7781C85.1503 43.4996 86.7023 42.416 88.3257 41.4742C90.1815 40.3965 91.3193 39.7469 93.4492 40.0746C95.156 40.3374 96.8509 40.6976 98.519 41.1553C100.279 41.6365 101.277 42.5696 102.674 43.7329C102.91 43.9337 103.151 44.1315 103.386 44.3352Z" fill="#D84545"/>
<path d="M99.0431 34.9995C98.7214 36.1834 98.3967 37.391 98.4533 38.6193C98.495 39.4962 98.7541 40.4086 99.3052 41.1083C99.755 41.6811 100.699 42.0738 100.264 42.9567C100.092 43.311 99.752 43.559 99.4035 43.7509C97.6698 44.6957 95.531 44.492 93.6216 43.9753C92.0548 43.5501 90.4284 42.8386 89.6271 41.439C89.5795 41.3564 89.5348 41.2648 89.5586 41.1733C89.5795 41.0906 89.651 41.0316 89.7195 40.9784C90.3986 40.4499 91.1046 39.7472 91.4174 38.9205C92.2901 36.6145 93.1749 34.1609 92.7221 31.7339" fill="#E29B7F"/>
<path d="M94.5155 37.7777C95.6296 38.6605 97.0297 39.1477 98.4446 39.2185C98.5667 38.6221 98.6918 38.0227 98.814 37.4263C98.8318 37.3436 98.8467 37.2521 98.811 37.1724C98.7812 37.1104 98.7246 37.069 98.671 37.0307C97.2769 36.0386 95.5045 35.1174 93.7947 34.8812C93.0232 34.7749 92.5168 35.082 92.913 35.8526C93.2973 36.5996 93.8632 37.261 94.5155 37.7777Z" fill="#C66D58"/>
<path d="M106.109 34.4263C105.54 35.9321 104.76 37.432 103.464 38.3739C102.123 39.3482 100.345 39.6051 98.7336 39.2419C97.1221 38.8788 95.6744 37.9369 94.5216 36.7441C92.1088 34.2432 90.959 30.5318 91.6411 27.1098C92.3233 23.6877 94.8552 20.6761 98.1259 19.5453C100.968 18.5621 106.371 18.9105 107.75 22.2085C108.337 23.611 107.995 25.3825 107.819 26.8322C107.503 29.4099 107.029 31.9904 106.109 34.4263Z" fill="#E29B7F"/>
<path d="M108.546 23.3127C107.876 23.3245 107.056 22.8344 106.431 22.6572C105.624 22.4299 104.816 22.3147 103.988 22.1966C102.517 21.987 101.03 22.1287 99.5439 22.2911C99.8835 23.0086 99.669 23.8796 99.255 24.5557C98.8439 25.2318 98.2541 25.7781 97.7685 26.4011C97.283 27.0241 96.8839 27.7858 96.9613 28.5771C96.5085 28.2169 96.2941 27.6412 95.9962 27.1422C95.6983 26.6432 95.2038 26.1619 94.6319 26.2357C94.3191 26.2741 94.0511 26.4749 93.8366 26.7081C93.2468 27.3489 92.9995 28.2907 93.1931 29.1411C93.3867 29.9914 94.0153 30.7296 94.8225 31.0484C95.1323 31.1724 94.2417 34.001 93.9587 34.2579C93.2706 34.8809 91.9539 35.0964 91.1675 34.5945C90.2799 34.0305 90.1608 32.4686 91.0812 31.9608C89.6306 31.3939 88.6118 29.9678 88.2722 28.4384C87.9326 26.9089 88.1977 25.2879 88.7458 23.8205C89.3863 22.111 90.4348 20.5225 91.9034 19.4507C93.9468 17.9537 96.1898 17.8238 98.4 18.9133C98.8319 18.1634 99.6005 17.6496 100.423 17.3927C101.245 17.1329 102.121 17.1093 102.978 17.1565C104.331 17.2333 105.695 17.502 106.89 18.1486C108.084 18.7952 109.097 19.8552 109.499 21.1602C109.63 21.5884 109.696 22.0549 109.547 22.4771C109.335 23.0971 108.972 23.3068 108.546 23.3127Z" fill="#003156"/>
<path d="M100.92 28.784L101.453 27.3756C101.557 27.1011 101.84 26.9357 102.129 26.9859C102.514 27.0509 102.743 27.4554 102.603 27.8215L102.174 28.9553" stroke="#003156" stroke-width="0.297877" stroke-miterlimit="10" stroke-linecap="round"/>
<path d="M104.274 29.4807L104.807 28.0724C104.912 27.7978 105.195 27.6324 105.484 27.6826C105.868 27.7476 106.097 28.1521 105.957 28.5182L105.528 29.652" stroke="#003156" stroke-width="0.297877" stroke-miterlimit="10" stroke-linecap="round"/>
<path d="M99.073 32.4275C99.2696 32.7316 100.041 33.8536 101.557 34.3083C102.925 34.7187 104.059 34.3378 104.423 34.199" stroke="#003156" stroke-width="0.297877" stroke-miterlimit="10" stroke-linecap="round"/>
<path d="M82.103 90.4311C81.4834 88.1044 80.8668 85.7748 80.2472 83.4482C79.4578 80.4809 78.6417 77.5933 78.7102 74.5108C78.7817 71.2806 79.0229 68.0535 79.44 64.8499C79.7855 62.1985 78.7251 61.0204 76.0114 60.8344C74.7633 60.7488 72.5262 60.8492 71.6653 61.9623C70.736 63.161 70.9177 66.3026 70.8551 67.77C70.6794 71.9095 71.1769 76.0579 72.0675 80.097C72.7079 82.9876 73.5479 85.8309 74.4862 88.6389C74.9658 90.0709 75.4722 91.497 75.9905 92.9171C76.2497 93.6258 76.5476 94.3285 76.78 95.043C76.9319 95.5125 76.9437 96.2034 77.3399 96.537C77.5782 96.7378 77.8881 96.8411 78.1949 96.9002C79.4847 97.1452 80.837 96.6787 81.8706 95.8756C83.6043 94.5204 82.5468 92.0963 82.103 90.4311Z" fill="#E29B7F"/>
<path d="M88.1947 57.743C89.7467 55.4961 91.1854 53.3938 91.3999 50.6538C91.4624 49.8625 91.4743 49.0624 91.3879 48.274C91.2926 47.4178 90.962 47.0428 91.242 46.2368C91.3731 45.8559 91.1973 45.4455 91.0245 45.0823C90.5182 44.0223 90.0029 42.9446 89.2165 42.0648C89.1033 41.9378 88.9782 41.8108 88.8143 41.7606C88.6713 41.7164 88.5164 41.737 88.3675 41.7577C85.9547 42.1061 83.0087 42.6907 80.8759 43.8895C80.8104 43.9249 80.7478 43.9633 80.6852 44.0017C75.6541 47.1698 72.3715 51.9382 70.8166 57.5983C70.3966 59.1336 70.051 60.6867 69.6518 62.225C69.3272 63.4828 68.9697 64.7613 68.4901 65.9689C68.4663 66.0309 71.1978 66.6361 71.4302 66.6893C72.1034 66.8458 72.7766 66.9934 73.4438 67.1676C75.8894 67.8172 78.4005 68.1243 80.718 69.1429C81.138 69.3378 84.0572 64.4129 84.3283 63.7662C85.2428 61.5961 86.8572 59.6828 88.1947 57.743Z" fill="#D84545"/>
<path d="M97.1907 42.7941L98.3315 42.5667L99.7345 44.2792L98.5877 46.0449L95.8621 45.0055L97.1907 42.7941Z" fill="#B71D37"/>
<path opacity="0.7" d="M105.787 49.9393C107.399 51.138 108.138 53.6595 108.111 56.0127C108.087 58.115 107.637 60.8018 106.845 62.6501C106.657 60.5449 106.878 58.3364 106.702 56.1987C106.615 55.124 106.493 54.0522 106.335 52.9893C106.27 52.5346 106.094 50.1666 105.787 49.9393Z" fill="#B71D37"/>
<path d="M97.1908 42.7941L90.7715 39.6319L89.2463 41.5304L95.4213 47.0104L97.1908 42.7941Z" fill="white"/>
<path d="M99.0254 40.6919L98.3313 42.5668L100.705 46.5321V42.6701L99.0254 40.6919Z" fill="white"/>
<path d="M211.6 171.434L218.323 171.434L218.323 162.884L211.6 162.884L211.6 171.434Z" fill="#E29B7F"/>
<path d="M209.085 92.6691L209.761 167.505L220.625 168.739L221.745 130.232L225.796 103.29C226.309 99.8734 226.297 96.3568 225.754 92.858L225.26 89.6722L209.085 92.6691Z" fill="#254A69"/>
<path d="M231.351 171.434L238.074 171.434L238.074 162.884L231.351 162.884L231.351 171.434Z" fill="#E29B7F"/>
<path d="M220.598 93.5842L229.877 167.856H240.809L237.494 129.473L238.42 102.247C238.536 98.7955 238.119 95.3026 237.178 91.8865L236.323 88.7774L220.598 93.5842Z" fill="#003156"/>
<path d="M223.094 177.146C222.82 177.098 222.525 177.03 222.344 176.818C222.102 176.537 222.15 176.115 222.254 175.758C222.284 175.657 222.317 175.557 222.382 175.474C222.633 175.158 223.392 174.872 223.771 174.724C224.387 174.482 224.992 174.211 225.579 173.901C228.322 172.439 230.16 170.446 231.271 168.982C231.453 168.74 231.769 168.672 232.022 168.825C232.501 169.117 232.883 169.507 233.365 169.791C234.625 170.535 235.93 171.178 237.315 170.375C237.795 170.098 238.632 169.735 238.706 170.653C238.775 171.477 238.846 172.3 238.915 173.121C238.968 173.768 239.019 174.414 239.078 175.058C239.135 175.69 239.522 176.28 238.864 176.756C238.554 176.98 238.164 177.054 237.783 177.101C236.52 177.252 235.239 177.128 233.967 177.113C230.363 177.069 226.702 177.763 223.094 177.146Z" fill="#063146"/>
<path d="M202.827 177.146C202.553 177.098 202.258 177.03 202.076 176.818C201.835 176.537 201.882 176.115 201.987 175.758C202.017 175.657 202.049 175.557 202.115 175.474C202.365 175.158 203.125 174.872 203.503 174.724C204.12 174.482 204.724 174.211 205.311 173.901C208.055 172.439 209.892 170.446 211.003 168.982C211.185 168.74 211.501 168.672 211.754 168.825C212.234 169.117 212.615 169.507 213.098 169.791C214.358 170.535 215.662 171.178 217.047 170.375C217.527 170.098 218.364 169.735 218.439 170.653C218.507 171.477 218.579 172.3 218.647 173.121C218.701 173.768 218.751 174.414 218.811 175.058C218.867 175.69 219.255 176.28 218.596 176.756C218.287 176.98 217.896 177.054 217.515 177.101C216.252 177.252 214.971 177.128 213.699 177.113C210.095 177.069 206.434 177.763 202.827 177.146Z" fill="#063146"/>
<path d="M167.796 67.773C166.369 67.3065 164.859 66.6127 164.478 65.2072C164.433 65.0419 164.409 64.8618 164.475 64.7053C165.309 62.7241 167.707 62.5972 169.456 63.0105C169.81 63.0932 175.175 64.1915 174.88 63.2408C174.71 62.6916 170.021 58.4872 173.021 58.6761C175.279 58.8208 176.596 61.1858 178.478 62.1395C180.793 63.3146 184.421 61.7882 186.81 61.298C189.619 60.7223 192.464 60.1259 195.025 58.8474C196.562 58.0827 197.959 57.0847 199.303 56.0247C200.107 55.3899 201.436 53.4648 202.422 54.4569C203.694 55.7324 205.817 57.4833 206.514 59.1249C206.976 60.2144 206.538 60.2823 205.415 61.1563C204.364 61.9742 203.262 62.7241 202.118 63.4062C197.62 66.0842 192.467 67.6845 187.224 67.9738C184.305 68.1362 181.082 67.5575 178.234 68.1657C174.71 68.9186 171.576 68.9364 168.154 67.8852C168.038 67.8498 167.918 67.8114 167.796 67.773Z" fill="#E29B7F"/>
<path d="M207.271 64.07C209.604 62.1656 211.188 58.8469 212.514 56.2132C213.059 55.1296 213.443 53.5648 214.265 52.6613C215.415 51.3976 216.875 50.0837 217.581 48.5188C218.269 46.9894 218.65 44.9934 218.811 43.3193C218.829 43.1362 218.841 42.9443 218.757 42.779C218.558 42.3863 217.986 42.3715 217.542 42.4365C217.497 42.4424 217.456 42.4483 217.411 42.4571C214.242 42.9384 211.912 44.4679 209.443 46.3309C208.707 46.886 207.971 47.4411 207.236 47.9991C204.522 50.0482 201.859 52.1475 199.154 54.2084C199.354 54.0608 206.607 63.2463 207.271 64.07Z" fill="#CBE0EF"/>
<path d="M210.744 44.3352C210.327 44.6954 209.922 45.0674 209.55 45.4778C207.173 48.0908 206.827 51.8997 206.714 55.2981C206.583 59.2486 207.256 63.1579 207.635 67.073C207.846 69.2608 208.713 93.6551 208.695 93.6551C219.112 93.8057 229.63 92.3796 239.671 89.4536C239.567 87.868 239.451 86.2825 239.326 84.6969C238.76 77.4484 237.845 70.2352 236.85 63.0368C236.371 59.5646 236.231 55.7439 235.298 52.3721C234.491 49.4579 232.555 46.7976 230.366 44.778C228.98 43.4996 227.429 42.416 225.805 41.4741C223.949 40.3964 222.811 39.7468 220.682 40.0746C218.975 40.3373 217.28 40.6976 215.612 41.1552C213.851 41.6365 212.853 42.5695 211.456 43.7328C211.221 43.9336 210.98 44.1314 210.744 44.3352Z" fill="#CBE0EF"/>
<path d="M215.088 34.9994C215.409 36.1834 215.734 37.391 215.677 38.6192C215.636 39.4962 215.377 40.4085 214.826 41.1083C214.376 41.6811 213.431 42.0738 213.866 42.9566C214.042 43.3109 214.379 43.5589 214.727 43.7508C216.461 44.6957 218.6 44.4919 220.509 43.9752C222.076 43.5501 223.702 42.8385 224.504 41.439C224.551 41.3563 224.596 41.2648 224.572 41.1732C224.551 41.0906 224.48 41.0315 224.411 40.9784C223.732 40.4499 223.026 39.7471 222.713 38.9204C221.841 36.6145 220.956 34.1608 221.409 31.7338" fill="#E29B7F"/>
<path d="M219.615 37.7776C218.501 38.6604 217.101 39.1476 215.686 39.2185C215.564 38.622 215.439 38.0227 215.317 37.4262C215.299 37.3436 215.284 37.252 215.32 37.1723C215.35 37.1103 215.406 37.069 215.46 37.0306C216.854 36.0385 218.626 35.1173 220.336 34.8811C221.108 34.7748 221.614 35.0819 221.218 35.8525C220.834 36.5995 220.268 37.2609 219.615 37.7776Z" fill="#C66D58"/>
<path d="M208.019 34.4262C208.588 35.932 209.368 37.432 210.664 38.3738C212.005 39.3482 213.783 39.6051 215.394 39.2419C217.006 38.8787 218.454 37.9368 219.606 36.744C222.019 34.2432 223.169 30.5318 222.487 27.1097C221.805 23.6877 219.273 20.676 216.002 19.5452C213.16 18.562 207.757 18.9104 206.378 22.2084C205.791 23.6109 206.133 25.3825 206.309 26.8322C206.625 29.4098 207.101 31.9903 208.019 34.4262Z" fill="#E29B7F"/>
<path d="M206.366 22.0314C207.602 22.1791 209.127 21.9665 209.991 21.7657C211.617 21.3878 213.223 20.9272 214.799 20.3839C213.959 21.4852 214.182 23.4192 214.87 24.553C215.281 25.2291 215.871 25.7753 216.356 26.3983C216.842 27.0213 217.241 27.7831 217.164 28.5744C217.617 28.2142 217.831 27.6384 218.129 27.1394C218.427 26.6404 218.921 26.1592 219.493 26.233C219.806 26.2714 220.074 26.4721 220.289 26.7054C220.878 27.3461 221.126 28.288 220.932 29.1383C220.843 29.531 220.661 29.903 220.408 30.219C219.684 31.1283 219.645 31.1343 219.794 32.4334C219.922 33.5495 220.125 34.6685 220.616 35.693C220.726 35.9233 220.86 36.1566 221.087 36.2776C221.298 36.3898 221.551 36.3839 221.787 36.3456C223.339 36.0887 224.411 34.5681 224.685 33.0328C224.956 31.4974 224.608 29.9296 224.328 28.3972C223.69 24.9132 224.858 21.1988 221.796 18.4942C221.286 18.0455 220.601 17.5376 219.904 17.4697C219.249 17.4077 218.665 17.7945 218.057 17.2689C217.816 17.0622 217.682 16.7611 217.536 16.4806C216.943 15.3616 215.954 14.3961 214.718 14.086C213.482 13.776 212.016 14.2543 211.412 15.3645C210.67 14.3134 209.38 13.6668 208.084 13.6993C206.789 13.7317 205.535 14.4433 204.849 15.5328C204.236 16.5072 204.087 17.6941 204.051 18.8397C204.021 19.82 204.129 20.936 204.912 21.5325C205.264 21.81 205.782 21.9606 206.366 22.0314Z" fill="#003156"/>
<path d="M213.211 28.784L212.678 27.3756C212.573 27.101 212.29 26.9356 212.001 26.9858C211.617 27.0508 211.388 27.4553 211.528 27.8214L211.957 28.9552" stroke="#003156" stroke-width="0.297877" stroke-miterlimit="10" stroke-linecap="round"/>
<path d="M209.857 29.481L209.324 28.0726C209.219 27.798 208.936 27.6326 208.647 27.6828C208.263 27.7478 208.034 28.1523 208.174 28.5184L208.603 29.6522" stroke="#003156" stroke-width="0.297877" stroke-miterlimit="10" stroke-linecap="round"/>
<path d="M215.055 32.4277C214.858 32.7318 214.087 33.8538 212.57 34.3085C211.203 34.7189 210.068 34.338 209.705 34.1992" stroke="#003156" stroke-width="0.297877" stroke-miterlimit="10" stroke-linecap="round"/>
<path d="M213.175 82.6865C212.889 82.7367 212.6 82.7869 212.317 82.8371C209.121 83.3833 205.401 83.9798 202.86 86.1529C202.124 86.7818 201.546 87.576 200.718 88.1045C199.482 88.8958 197.894 89.3594 196.53 88.8072C195.008 88.1901 194.224 86.5367 193.721 84.9866C193.354 83.8617 193.06 82.6629 193.304 81.5055C193.372 81.1778 193.494 80.8441 193.76 80.6374C193.956 80.4839 194.209 80.4219 194.457 80.3687C195.493 80.1503 196.56 80.0558 197.617 80.0883C197.304 78.981 196.86 78.1071 196.42 77.0648C196.009 76.0934 196.193 74.5699 197.254 74.502C198.406 74.4252 198.675 76.0314 199.214 77.0441C199.801 78.1484 201.099 78.7389 202.356 78.8246C203.613 78.9102 204.855 78.5706 206.071 78.237C209.282 77.3542 212.505 76.4625 215.594 75.2047C217.074 74.5994 218.525 73.9174 219.907 73.1084C221.468 72.199 221.522 71.638 222.472 70.3034C222.862 69.7572 223.226 69.3881 223.479 68.7149C224.292 66.5477 224.468 63.79 225.049 62.0864C225.823 59.8099 227.292 57.7726 229.21 56.3023C230.133 55.5936 231.247 54.9972 232.409 55.1035C235.668 55.3988 233.857 59.1161 233.541 61.0116C232.811 65.3814 232.522 69.8517 231.519 74.1624C230.747 77.4693 227.08 79.0726 224.14 80.0499C220.643 81.2014 216.833 82.037 213.175 82.6865Z" fill="#E29B7F"/>
<path d="M232.826 46.7503C233.034 46.9806 233.225 47.2257 233.395 47.4825C235.179 50.1635 236.383 53.6889 235.703 56.9072C235.275 58.9415 234.965 60.9906 234.777 63.0456C234.571 65.2866 234.703 67.6073 234.786 69.8306C229.362 70.3296 223.946 71.1002 218.573 72.1395C218.68 72.1189 218.796 67.9026 218.9 67.4449C219.24 65.9509 219.124 64.5278 219.073 63.0131C218.984 60.2229 218.891 57.4357 218.802 54.6455C218.713 51.9232 218.638 49.384 219.946 46.9599C220.929 45.1382 222.746 42.5281 225.188 43.0655C227.822 43.6471 230.988 44.7042 232.826 46.7503Z" fill="#CBE0EF"/>
<path d="M216.94 42.794L215.799 42.5667L214.396 44.2792L215.543 46.0448L218.269 45.0055L216.94 42.794Z" fill="#B71D37"/>
<path opacity="0.58" d="M208.344 49.9392C206.732 51.138 205.993 53.6595 206.02 56.0127C206.044 58.1149 206.494 60.8018 207.286 62.6501C207.474 60.5449 207.253 58.3364 207.429 56.1987C207.516 55.1239 207.638 54.0522 207.796 52.9892C207.861 52.5345 208.034 50.1666 208.344 49.9392Z" fill="#6B92C1"/>
<path d="M216.94 42.794L223.36 39.6318L224.882 41.5303L218.71 47.0103L216.94 42.794Z" fill="white"/>
<path d="M215.102 40.6918L215.799 42.5667L213.425 46.532V42.6701L215.102 40.6918Z" fill="white"/>
<path opacity="0.58" d="M231.548 70.1586L235.927 69.701L235.197 52.3457L234.333 68.3281L231.548 70.1586Z" fill="#6B92C1"/>
<path opacity="0.58" d="M221.465 51.0968L219.925 71.883L218.576 72.1399L221.465 51.0968Z" fill="#6B92C1"/>
<path d="M165.914 54.0374C170.654 54.0374 174.496 50.229 174.496 45.531C174.496 40.8331 170.654 37.0246 165.914 37.0246C161.174 37.0246 157.332 40.8331 157.332 45.531C157.332 50.229 161.174 54.0374 165.914 54.0374Z" fill="#E98B50" stroke="#E98B50" stroke-width="0.297877" stroke-miterlimit="10"/>
<path d="M166.367 53.27C171.106 53.27 174.949 49.4615 174.949 44.7636C174.949 40.0656 171.106 36.2572 166.367 36.2572C161.627 36.2572 157.785 40.0656 157.785 44.7636C157.785 49.4615 161.627 53.27 166.367 53.27Z" fill="#F9C358" stroke="#F4E06C" stroke-width="0.595755" stroke-miterlimit="10"/>
<path d="M165.436 40.927H163.15V40.0717H169.143V40.927H167.607C167.82 41.0861 167.987 41.2858 168.107 41.5263C168.227 41.7629 168.295 42.0131 168.311 42.2769H169.143V43.1322H168.299C168.225 43.6326 168.026 44.0612 167.7 44.4181C167.374 44.775 166.949 45.0213 166.426 45.157L168.154 47.7462H169.143V48.8401H167.426L165.116 45.3374H163.15V44.4763H165.355C165.848 44.4763 166.235 44.3599 166.519 44.1272C166.806 43.8944 166.99 43.5628 167.071 43.1322H163.15V42.2769H167.083C167.036 41.9084 166.881 41.5923 166.618 41.3285C166.354 41.0608 165.96 40.927 165.436 40.927Z" fill="#D87741"/>
<path d="M161.097 14.325L157.538 14.9214L156.82 19.9142C156.712 20.6494 155.64 20.6464 155.536 19.9112L154.851 14.9657L151.288 14.322C150.704 14.2157 150.707 13.1528 151.288 13.0494L154.904 12.4205L155.536 7.49859C155.631 6.75159 156.721 6.74863 156.82 7.49564L157.484 12.4678L161.091 13.0465C161.684 13.1469 161.687 14.2275 161.097 14.325Z" fill="#F7BB34"/>
<path d="M180.197 29.1705L177.287 29.6577L176.7 33.7382C176.613 34.3405 175.735 34.3376 175.651 33.7352L175.091 29.6932L172.181 29.1676C171.701 29.082 171.704 28.211 172.181 28.1283L175.136 27.6145L175.651 23.5931C175.729 22.9849 176.622 22.9819 176.7 23.5902L177.245 27.6529L180.194 28.1283C180.677 28.208 180.679 29.0908 180.197 29.1705Z" fill="#F7BB34"/>
<path d="M139.477 28.3175L135.798 28.9346L135.057 34.0957C134.946 34.8575 133.838 34.8545 133.731 34.0927L133.022 28.9789L129.34 28.3145C128.736 28.2053 128.739 27.1069 129.34 27.0006L133.079 26.3511L133.731 21.2638C133.829 20.4932 134.958 20.4902 135.057 21.2608L135.745 26.4013L139.474 27.0006C140.082 27.0981 140.085 28.2142 139.477 28.3175Z" fill="#F7BB34"/>
<path d="M83.8486 55.4429L79.9822 68.4786L81.0009 68.9776L83.8486 55.4429Z" fill="#B71D37"/>
<path d="M215.543 46.0445L211.111 65.3012L212.383 73.2584L216.333 66.8277L215.543 46.0445Z" fill="#D84545"/>
<path d="M136.999 9.75486L134.979 6.94104" stroke="#F7BB34" stroke-width="0.893633" stroke-miterlimit="10" stroke-linecap="round"/>
<path d="M144.69 20.4667L139.114 12.6985" stroke="#F7BB34" stroke-width="0.893633" stroke-miterlimit="10" stroke-linecap="round"/>
<path d="M172.828 10.6111L174.847 7.79727" stroke="#F7BB34" stroke-width="0.893633" stroke-miterlimit="10" stroke-linecap="round"/>
<path d="M165.139 21.3229L170.716 13.5547" stroke="#F7BB34" stroke-width="0.893633" stroke-miterlimit="10" stroke-linecap="round"/>
<path d="M165.461 2.84832L166.14 1" stroke="#F7BB34" stroke-width="0.893633" stroke-miterlimit="10" stroke-linecap="round"/>
<path d="M162.959 9.67756L164.812 4.61978" stroke="#F7BB34" stroke-width="0.893633" stroke-miterlimit="10" stroke-linecap="round"/>
<path d="M147.675 6.0936L146.951 4.12424" stroke="#F7BB34" stroke-width="0.893633" stroke-miterlimit="10" stroke-linecap="round"/>
<path d="M149.194 9.76359L148.265 7.23618" stroke="#F7BB34" stroke-width="0.893633" stroke-miterlimit="10" stroke-linecap="round"/>
</svg>
